HIERARCHY
ROOT SpineBase
{
  OFFSET 0.000000 0.000000 0.000000
  CHANNELS 6 Xposition Yposition Zposition Zrotation Xrotation Yrotation
  JOINT SpineMid
  {
    OFFSET 0.000000 25.902012 0.000000
    CHANNELS 3 Zrotation Xrotation Yrotation
    JOINT SpineShoulder
    {
      OFFSET -0.425089 19.528407 -0.692991
      CHANNELS 3 Zrotation Xrotation Yrotation
      JOINT Neck
      {
        OFFSET -0.237624 6.532762 -0.559099
        CHANNELS 3 Zrotation Xrotation Yrotation
        JOINT Head
        {
          OFFSET -3.204641 13.370431 0.509438
          CHANNELS 3 Zrotation Xrotation Yrotation
          End Site
          {
            OFFSET 0 0 0
          }
        }
      }
      JOINT ShoulderLeft
      {
        OFFSET -12.337320 -3.706353 7.106408
        CHANNELS 3 Zrotation Xrotation Yrotation
        JOINT ElbowLeft
        {
          OFFSET 0.191631 -20.941273 -5.748037
          CHANNELS 3 Zrotation Xrotation Yrotation
          JOINT WristLeft
          {
            OFFSET -2.250556 -19.623985 1.831354
            CHANNELS 3 Zrotation Xrotation Yrotation
            JOINT HandLeft
            {
              OFFSET 1.523769 -3.463923 0.056129
              CHANNELS 3 Zrotation Xrotation Yrotation
              JOINT HandTipLeft
              {
                OFFSET 1.145732 -6.786465 1.543175
                CHANNELS 3 Zrotation Xrotation Yrotation
                End Site
                {
                  OFFSET 0 0 0
                }
              }
              JOINT ThumbLeft
              {
                OFFSET 2.778156 -0.539729 -3.868234
                CHANNELS 3 Zrotation Xrotation Yrotation
                End Site
                {
                  OFFSET 0 0 0
                }
              }
            }
          }
        }
      }
      JOINT ShoulderRight
      {
        OFFSET 11.597814 -2.210893 -9.014800
        CHANNELS 3 Zrotation Xrotation Yrotation
        JOINT ElbowRight
        {
          OFFSET 3.560638 -20.917424 -3.639221
          CHANNELS 3 Zrotation Xrotation Yrotation
          JOINT WristRight
          {
            OFFSET -2.137146 -20.562780 -2.358889
            CHANNELS 3 Zrotation Xrotation Yrotation
            JOINT HandRight
            {
              OFFSET -3.911788 -6.586279 -0.729745
              CHANNELS 3 Zrotation Xrotation Yrotation
              JOINT HandTipRight
              {
                OFFSET -0.942634 -6.409568 0.497314
                CHANNELS 3 Zrotation Xrotation Yrotation
                End Site
                {
                  OFFSET 0 0 0
                }
              }
              JOINT ThumbRight
              {
                OFFSET -3.254160 -0.957003 -3.534856
                CHANNELS 3 Zrotation Xrotation Yrotation
                End Site
                {
                  OFFSET 0 0 0
                }
              }
            }
          }
        }
      }
    }
  }
  JOINT HipLeft
  {
    OFFSET -6.254804 -0.148264 0.425133
    CHANNELS 3 Zrotation Xrotation Yrotation
    JOINT KneeLeft
    {
      OFFSET 7.215402 -36.544645 9.508777
      CHANNELS 3 Zrotation Xrotation Yrotation
      JOINT AnkleLeft
      {
        OFFSET 9.194394 -37.323553 10.496489
        CHANNELS 3 Zrotation Xrotation Yrotation
        JOINT FootLeft
        {
          OFFSET -7.005049 -7.726413 -3.148420
          CHANNELS 3 Zrotation Xrotation Yrotation
          End Site
          {
            OFFSET 0 0 0
          }
        }
      }
    }
  }
  JOINT HipRight
  {
    OFFSET 5.388606 2.158818 -6.406819
    CHANNELS 3 Zrotation Xrotation Yrotation
    JOINT KneeRight
    {
      OFFSET 8.556779 -37.145775 7.202696
      CHANNELS 3 Zrotation Xrotation Yrotation
      JOINT AnkleRight
      {
        OFFSET 7.243383 -38.381974 8.087778
        CHANNELS 3 Zrotation Xrotation Yrotation
        JOINT FootRight
        {
          OFFSET -6.015887 -7.208085 -1.167038
          CHANNELS 3 Zrotation Xrotation Yrotation
          End Site
          {
            OFFSET 0 0 0
          }
        }
      }
    }
  }
}
MOTION
Frames: 11
Frame Time: 0.033333
52.244474 81.615103 368.229266 4.449120 -1.538804 28.769307 -1.529705 0.201607 -28.604795 -0.567135 -0.064561 0.080722 -1.822579 0.832833 -0.443176 0.000000 0.000000 0.000000 -2.026456 -3.191114 -0.246531 -1.390952 9.807215 -0.286282 0.826633 3.868535 4.302344 -15.313823 -19.253586 -12.376428 0.000000 0.000000 0.000000 0.000000 0.000000 0.000000 -7.058735 6.774387 1.863472 -16.830525 -1.981100 -0.439268 11.854609 -3.486481 -0.615434 -12.962284 19.607222 -2.083860 0.000000 0.000000 0.000000 0.000000 0.000000 0.000000 -7.742195 9.688241 -29.268767 7.020572 -3.143538 1.374550 6.520519 -2.939908 0.185109 0.000000 0.000000 0.000000 -6.490411 11.050424 -28.283453 8.864024 -8.509727 0.486707 -7.018836 18.164780 -9.896039 0.000000 0.000000 0.000000
51.940414 81.407460 368.554924 4.697590 -2.658343 30.665661 -1.278594 0.012358 -30.449212 -0.436276 -0.079798 0.105535 -1.723250 2.943992 -0.291107 0.000000 0.000000 0.000000 -4.154884 -5.411717 0.128144 1.611334 14.220254 -0.969517 -1.444039 2.191192 3.888189 -10.307034 -16.796332 -9.516730 0.000000 0.000000 0.000000 0.000000 0.000000 0.000000 -13.976324 12.160310 4.805400 -18.677522 -2.907408 -2.851703 10.468174 -4.409521 -1.377936 -11.259160 22.446737 -1.506295 0.000000 0.000000 0.000000 0.000000 0.000000 0.000000 -7.198297 11.073277 -31.044192 7.246625 -1.667312 1.815174 6.263128 -4.320922 -0.126848 0.000000 0.000000 0.000000 -5.331477 14.407718 -29.751605 9.895916 -10.268939 0.571118 -6.515447 25.475411 -16.108013 0.000000 0.000000 0.000000
51.394536 81.607207 368.907011 4.788378 -4.109542 35.467160 -0.908049 -0.175657 -35.203074 -0.337509 -0.092637 0.121833 -1.100157 5.751088 -0.128955 0.000000 0.000000 0.000000 -6.554375 -8.143298 0.596689 5.305626 18.323253 -2.053392 -2.722808 1.371340 3.283557 -18.409317 -20.495254 -13.869142 0.000000 0.000000 0.000000 0.000000 0.000000 0.000000 -22.183130 18.518040 9.355124 -19.651482 -3.687315 -6.124358 7.851080 -6.557491 -2.209924 -13.020763 25.464899 -0.104783 0.000000 0.000000 0.000000 0.000000 0.000000 0.000000 -4.922035 14.056896 -35.630732 7.246970 -2.407758 1.775541 3.328079 -3.718742 -0.150405 0.000000 0.000000 0.000000 -2.413976 17.734149 -34.367134 9.886588 -11.349402 0.462142 -6.251459 24.613639 -16.324519 0.000000 0.000000 0.000000
50.709071 82.050522 369.437893 4.912938 -5.835845 40.688344 -0.998849 -0.604743 -40.367598 -0.261574 0.072812 0.117981 -0.380428 8.971465 -0.040781 0.000000 0.000000 0.000000 -8.100384 -8.857623 1.038068 8.696256 18.931754 -2.880287 -7.324413 4.316565 3.319809 -17.157614 -20.618652 -14.800751 0.000000 0.000000 0.000000 0.000000 0.000000 0.000000 -32.533698 24.666967 16.153336 -18.442280 -2.407946 -9.167824 7.274930 -10.504194 -3.772951 -11.946001 28.110242 1.309477 0.000000 0.000000 0.000000 0.000000 0.000000 0.000000 -1.737868 16.388342 -40.814409 6.694340 -2.232460 1.760129 0.727896 -4.426216 0.253684 0.000000 0.000000 0.000000 1.584830 20.620602 -39.703482 8.987554 -11.814261 0.130633 -3.566523 17.909674 -13.340140 0.000000 0.000000 0.000000
50.263139 82.483469 369.226675 5.599398 -7.363096 45.389259 -0.987958 -0.480700 -44.957552 -0.374397 -0.013518 0.132779 -0.433759 12.019128 0.157615 0.000000 0.000000 0.000000 -9.982922 -10.733139 1.479966 13.597386 20.751741 -4.528533 -12.991715 5.047559 2.735496 -2.921812 -10.094320 -6.476483 0.000000 0.000000 0.000000 0.000000 0.000000 0.000000 -43.486961 29.266045 24.027264 -15.513620 -0.414293 -11.520660 2.017600 -12.165937 -7.087185 -9.328291 28.750639 3.338564 0.000000 0.000000 0.000000 0.000000 0.000000 0.000000 0.590021 18.783175 -45.632480 6.605824 -2.465366 1.745225 -0.174478 -8.111886 3.504218 0.000000 0.000000 0.000000 4.557634 22.433862 -44.729153 7.688372 -10.995987 -0.210633 -1.539487 11.668834 -10.060971 0.000000 0.000000 0.000000
49.942659 83.279410 368.493555 6.538157 -8.847011 51.879746 -0.824687 -0.111738 -51.294242 -0.427542 0.006395 0.161547 -1.208899 15.022478 0.524531 0.000000 0.000000 0.000000 -11.654013 -12.295018 1.785751 18.138207 21.540726 -6.145006 -15.219163 10.817042 4.577708 -1.757260 -6.552436 -6.218536 0.000000 0.000000 0.000000 0.000000 0.000000 0.000000 -54.798718 31.858711 32.228369 -11.032290 1.984993 -12.821224 -16.092779 -19.871341 -14.411997 4.361431 39.127135 5.682927 0.000000 0.000000 0.000000 0.000000 0.000000 0.000000 3.793746 20.197505 -52.413826 5.662178 -2.360863 1.483489 2.491310 -5.228269 -0.062517 0.000000 0.000000 0.000000 7.200371 22.587462 -51.743801 5.853833 -8.351395 -0.416193 0.112651 5.399737 -6.406168 0.000000 0.000000 0.000000
50.612442 83.074810 366.820278 8.671149 -8.971963 52.657192 -1.275563 0.524747 -51.772542 -0.680762 -0.193261 0.230953 -2.881601 16.950503 1.010225 0.000000 0.000000 0.000000 -13.234199 -13.701081 1.883580 22.201666 21.585186 -7.558927 -22.009291 2.980501 -0.084056 9.398907 6.727434 0.988083 0.000000 0.000000 0.000000 0.000000 0.000000 0.000000 -65.654291 32.499251 39.555317 -5.235279 2.877367 -13.610958 -44.883684 -9.643237 -23.714079 31.049004 42.432910 9.394388 0.000000 0.000000 0.000000 0.000000 0.000000 0.000000 -0.719063 20.926395 -52.959354 6.569704 1.269946 2.368029 5.166063 -4.337535 -1.981854 0.000000 0.000000 0.000000 4.540987 24.071795 -52.391804 5.296270 -5.562458 -0.135943 0.357663 12.225056 -12.454641 0.000000 0.000000 0.000000
51.293760 82.758635 364.954320 10.318789 -8.871835 53.428274 -0.975272 1.248705 -52.377639 -0.956708 -0.434501 0.306655 -4.159837 17.334567 1.257018 0.000000 0.000000 0.000000 -14.305329 -14.697587 1.759310 25.227590 20.890323 -8.382147 -32.497383 -10.973734 -9.200244 13.587506 23.552262 6.372800 0.000000 0.000000 0.000000 0.000000 0.000000 0.000000 -73.917937 32.446637 44.845312 0.487568 1.717991 -14.247302 -63.804189 1.470632 -26.390752 47.575901 41.798881 12.973567 0.000000 0.000000 0.000000 0.000000 0.000000 0.000000 -4.749855 21.579927 -53.438272 7.536501 3.625673 2.952105 9.775649 -1.974655 -5.352842 0.000000 0.000000 0.000000 1.302854 24.524811 -52.917358 4.871477 -2.437780 0.351844 0.073864 14.065944 -13.890505 0.000000 0.000000 0.000000
52.127772 82.184865 362.902826 11.815583 -8.185655 51.265071 -0.729445 1.469222 -50.142196 -1.105323 -0.764434 0.403932 -5.730310 17.160830 1.389712 0.000000 0.000000 0.000000 -15.169414 -14.338177 1.528206 26.590781 19.377237 -8.179668 -38.749237 -27.095416 -21.099299 11.155709 43.445633 13.635776 0.000000 0.000000 0.000000 0.000000 0.000000 0.000000 -78.456947 32.001245 46.727779 2.625429 2.632718 -14.052386 -72.240814 22.006761 -18.157430 60.190783 28.061908 23.385609 0.000000 0.000000 0.000000 0.000000 0.000000 0.000000 -12.086854 20.518279 -50.787122 9.177415 7.229357 3.741213 14.494996 1.045345 -9.421330 0.000000 0.000000 0.000000 -3.951727 24.882859 -50.143910 5.663745 -0.302935 0.999869 -0.857728 13.836681 -13.072599 0.000000 0.000000 0.000000
52.880638 81.459559 360.928582 13.029971 -7.354527 47.551681 -0.650162 1.508839 -46.409741 -1.276508 -0.928955 0.484279 -6.937619 17.480630 1.591857 0.000000 0.000000 0.000000 -16.331875 -15.049151 1.326347 27.076791 18.338405 -8.007895 -47.090610 -36.047636 -31.338059 7.973533 57.641014 20.675577 0.000000 0.000000 0.000000 0.000000 0.000000 0.000000 -80.555975 31.788210 46.943436 5.091973 4.178683 -13.107302 -74.384625 12.922073 -27.899642 62.714892 42.231185 19.389141 0.000000 0.000000 0.000000 0.000000 0.000000 0.000000 -19.244173 17.884694 -46.918953 9.893974 11.784041 4.576210 20.405121 -2.317135 -8.205656 0.000000 0.000000 0.000000 -9.419236 24.877463 -45.724280 7.127806 0.461273 1.480055 -0.571271 15.611723 -13.741687 0.000000 0.000000 0.000000
53.558547 80.711448 359.270545 13.849769 -6.124877 42.305035 -0.455395 1.626585 -41.262886 -1.378041 -0.849181 0.536558 -7.672425 14.807023 1.205467 0.000000 0.000000 0.000000 -17.327573 -16.583990 0.906136 28.141390 19.339585 -8.612122 -57.106715 -45.724150 -44.894203 -9.350958 74.085251 40.541530 0.000000 0.000000 0.000000 0.000000 0.000000 0.000000 -76.856244 32.228526 42.881275 3.077932 6.645236 -12.450816 -79.559603 -0.248237 -38.898374 70.117584 56.179023 5.225124 0.000000 0.000000 0.000000 0.000000 0.000000 0.000000 -26.523390 13.206061 -42.485760 10.560068 17.133809 5.619659 22.853829 -2.750560 -8.998177 0.000000 0.000000 0.000000 -15.033058 23.826318 -39.932195 8.871855 0.802101 1.902472 -2.245841 14.428732 -11.877580 0.000000 0.000000 0.000000
